<svg width="46" height="46" viewBox="0 0 46 46" fill="none" xmlns="http://www.w3.org/2000/svg">
<path d="M23 46C35.7025 46 46 35.7025 46 23C46 10.2975 35.7025 0 23 0C10.2975 0 0 10.2975 0 23C0 35.7025 10.2975 46 23 46Z" fill="#6C1D45"/>
<path d="M14 28.251V32.004H17.75L28.808 20.942L25.058 17.192L14 28.251ZM31.708 18.042C31.8943 17.8547 31.9988 17.6012 31.9988 17.337C31.9988 17.0728 31.8943 16.8194 31.708 16.632L29.368 14.292C29.1806 14.1058 28.9272 14.0012 28.663 14.0012C28.3988 14.0012 28.1454 14.1058 27.958 14.292L26.128 16.122L29.878 19.872L31.708 18.042Z" fill="white"/>
</svg>
