<svg width="231" height="215" viewBox="0 0 231 215" fill="none" xmlns="http://www.w3.org/2000/svg">
<path d="M115.5 215C179.289 215 231 166.871 231 107.5C231 48.1294 179.289 0 115.5 0C51.7111 0 0 48.1294 0 107.5C0 166.871 51.7111 215 115.5 215Z" fill="#6C1D45"/>
<path d="M177.528 98.7784L177.116 97.9585L176.253 97.4375C169.464 93.4847 161.626 91.5453 153.709 91.8597C152 80.6258 147.029 70.0923 139.375 61.4847C131.722 52.8772 121.699 46.5494 110.474 43.2375L109.492 43L108.526 43.2375C82.7273 49.3823 64 75.5629 64 105.437C64 135.31 82.7273 161.437 108.526 167.659L109.492 167.896L110.474 167.659C111.171 167.498 111.891 167.321 112.525 167.122C118.119 169.714 124.25 171.04 130.452 170.999C144.395 170.744 157.662 165.141 167.337 155.423C175.187 148.348 180.431 138.984 182.271 128.758C184.111 118.531 182.445 108.004 177.528 98.7784V98.7784ZM105.398 123.917L73.5022 92.7638C75.0262 85.0145 78.0892 77.6248 82.5215 71.0041L105.39 93.4227L105.398 123.917ZM113.594 92.8557L136.257 70.8585C140.711 77.4082 143.814 84.7294 145.395 92.419L113.594 123.358V92.8557ZM113.594 158.334V134.659L146.685 102.379C146.685 103.398 146.788 104.379 146.788 105.444C147.263 116.442 144.364 127.33 138.458 136.737C132.551 146.144 123.9 153.651 113.594 158.311V158.334ZM172.856 107.651C174.431 111.666 175.181 115.939 175.065 120.232H159.941L172.856 107.651ZM150.93 128.989L151.722 128.223H173.933C172.736 133.197 170.657 137.934 167.788 142.221H144.595C147.184 138.05 149.307 133.625 150.93 129.02V128.989ZM167.076 101.996L154.453 114.301V114.117C154.807 111.236 154.984 108.338 154.984 105.437C155.018 103.575 154.95 101.713 154.778 99.8587C158.978 99.8156 163.15 100.535 167.076 101.981V101.996ZM131.133 64.4532L113.594 81.5622V52.562C120.308 55.167 126.31 59.2364 131.133 64.4532V64.4532ZM105.398 52.5697V82.0755L87.6052 64.7214C92.4712 59.3805 98.5621 55.2162 105.39 52.562L105.398 52.5697ZM72.2036 105.437V102.9L105.398 135.218V158.342C95.0866 153.677 86.432 146.164 80.5238 136.75C74.6156 127.336 71.718 116.441 72.1957 105.437H72.2036ZM123.84 162.38C129.468 159.15 134.486 155.018 138.68 150.159H161.097C156.359 154.945 150.498 158.555 144.011 160.682C137.523 162.81 130.602 163.392 123.832 162.38H123.84Z" fill="white"/>
</svg>
