<svg width="30" height="30" viewBox="0 0 30 30" fill="none" xmlns="http://www.w3.org/2000/svg">
<path d="M15 30C23.2843 30 30 23.2843 30 15C30 6.71573 23.2843 0 15 0C6.71573 0 0 6.71573 0 15C0 23.2843 6.71573 30 15 30Z" fill="#6C1D45"/>
<path d="M15.043 3.91406C12.865 3.91822 10.7372 4.56756 8.92804 5.78011C7.11889 6.99267 5.70955 8.71407 4.87798 10.727C4.0464 12.7399 3.82986 14.954 4.25569 17.0899C4.68153 19.2258 5.73065 21.1876 7.2706 22.7277C8.81054 24.2678 10.7723 25.3171 12.9081 25.7431C15.044 26.1692 17.2581 25.9528 19.2711 25.1214C21.2841 24.29 23.0056 22.8808 24.2183 21.0718C25.4311 19.2628 26.0806 17.135 26.0849 14.9571C26.0815 12.0295 24.9171 9.22282 22.8471 7.15263C20.7771 5.08244 17.9705 3.91777 15.043 3.91406ZM15.043 24.0001C12.7572 23.9992 10.5573 23.1286 8.88995 21.5651C10.557 20.0014 12.7568 19.1311 15.0425 19.1311C17.3281 19.1311 19.5279 20.0014 21.195 21.5651C19.5278 23.1284 17.3284 23.999 15.043 24.0001ZM22.5029 20.0561C20.4736 18.1758 17.809 17.1311 15.0425 17.1311C12.2759 17.1311 9.61134 18.1758 7.58195 20.0561C6.6515 18.6977 6.10954 17.1112 6.01452 15.4675C5.91951 13.8238 6.27504 12.1853 7.04277 10.7289C7.81051 9.27237 8.96131 8.05312 10.3711 7.20261C11.7808 6.3521 13.396 5.9026 15.0425 5.9026C16.6889 5.9026 18.3041 6.3521 19.7138 7.20261C21.1236 8.05312 22.2744 9.27237 23.0421 10.7289C23.8099 12.1853 24.1654 13.8238 24.0704 15.4675C23.9754 17.1112 23.4334 18.6977 22.5029 20.0561Z" fill="white"/>
<path d="M15.0428 8.12207C14.2453 8.12187 13.4656 8.35818 12.8024 8.8011C12.1392 9.24402 11.6223 9.87366 11.317 10.6104C11.0116 11.3471 10.9317 12.1579 11.0871 12.9401C11.2426 13.7223 11.6265 14.4408 12.1904 15.0048C12.7542 15.5688 13.4726 15.9529 14.2548 16.1085C15.0369 16.2642 15.8477 16.1844 16.5845 15.8792C17.3213 15.5741 17.9511 15.0573 18.3942 14.3942C18.8373 13.7312 19.0738 12.9516 19.0738 12.1541C19.0727 11.0852 18.6477 10.0604 17.892 9.30454C17.1363 8.54865 16.1116 8.12339 15.0428 8.12207ZM15.0428 14.1861C14.6408 14.1863 14.2479 14.0673 13.9136 13.8441C13.5793 13.6209 13.3187 13.3037 13.1647 12.9324C13.0108 12.5611 12.9704 12.1525 13.0487 11.7583C13.127 11.364 13.3204 11.0019 13.6046 10.7176C13.8887 10.4333 14.2508 10.2397 14.645 10.1612C15.0392 10.0827 15.4478 10.1229 15.8191 10.2766C16.1905 10.4304 16.5079 10.6909 16.7312 11.025C16.9546 11.3592 17.0738 11.7521 17.0738 12.1541C17.0735 12.6928 16.8595 13.2095 16.4787 13.5906C16.098 13.9718 15.5815 14.1863 15.0428 14.1871V14.1861Z" fill="white"/>
</svg>
