<svg width="29" height="28" viewBox="0 0 29 28" fill="none" xmlns="http://www.w3.org/2000/svg">
<path d="M14.5 28C22.5081 28 29 21.732 29 14C29 6.26801 22.5081 0 14.5 0C6.49187 0 0 6.26801 0 14C0 21.732 6.49187 28 14.5 28Z" fill="#6C1D45"/>
<path d="M16.516 14.0631C19.935 11.7471 15.322 8.55418 17.705 5.76318C16.153 6.60483 14.6742 7.57479 13.284 8.66309C12.6547 9.2547 12.2601 10.0537 12.1731 10.9131C12.086 11.7724 12.3121 12.6342 12.81 13.3401C13.2267 13.9003 13.8377 14.2847 14.5231 14.4177C15.2086 14.5507 15.919 14.4228 16.515 14.0591L16.516 14.0631Z" stroke="white" stroke-linecap="round" stroke-linejoin="round"/>
<path d="M15.6066 18.2139C16.6051 17.7437 17.7045 17.5279 18.8066 17.5859C18.8066 17.5859 18.0946 19.8239 17.2066 20.4749C16.3186 21.1259 15.2386 21.1479 14.7966 20.5239C14.3546 19.8999 14.7176 18.8659 15.6066 18.2149V18.2139Z" stroke="white" stroke-linecap="round" stroke-linejoin="round"/>
<path d="M14.5069 7.49207C13.5379 5.85307 12.0739 5.81112 10.6789 5.54712C12.2229 6.54712 11.0789 8.24707 10.2789 9.92407C9.47887 11.6011 9.76487 14.5501 13.6969 14.1941" stroke="white" stroke-linecap="round" stroke-linejoin="round"/>
<path d="M13.2891 6.11804L14.9321 5.21802L16.7941 6.24805" stroke="white" stroke-linecap="round" stroke-linejoin="round"/>
<path d="M13.3157 16.9321C12.3173 16.4616 11.2179 16.2455 10.1157 16.303C10.1157 16.303 10.8277 18.5411 11.7157 19.1921C12.6037 19.8431 13.6837 19.865 14.1257 19.241C14.5677 18.617 14.2047 17.5831 13.3157 16.9321Z" stroke="white" stroke-linecap="round" stroke-linejoin="round"/>
<path d="M14.4229 14.4951V23.2141" stroke="white" stroke-linecap="round" stroke-linejoin="round"/>
</svg>
