<svg width="195" height="187" viewBox="0 0 195 187" fill="none" xmlns="http://www.w3.org/2000/svg">
<path d="M97.5 187C151.348 187 195 145.139 195 93.5C195 41.8614 151.348 0 97.5 0C43.6522 0 0 41.8614 0 93.5C0 145.139 43.6522 187 97.5 187Z" fill="#6C1D45"/>
<path d="M111.056 93.9214C134.046 78.4538 103.027 57.1296 119.051 38.4897C108.615 44.1108 98.6711 50.5887 89.3233 57.857C85.0916 61.8081 82.439 67.1446 81.8533 72.8837C81.2677 78.6229 82.7886 84.3786 86.1361 89.0926C88.9382 92.8341 93.0467 95.4014 97.6556 96.2897C102.264 97.1781 107.041 96.3233 111.049 93.8945L111.056 93.9214Z" stroke="white" stroke-linecap="round" stroke-linejoin="round"/>
<path d="M104.941 121.643C111.655 118.503 119.048 117.061 126.459 117.449C126.459 117.449 121.671 132.396 115.7 136.743C109.729 141.091 102.467 141.238 99.4948 137.07C96.5227 132.903 98.9636 125.997 104.941 121.65V121.643Z" stroke="white" stroke-linecap="round" stroke-linejoin="round"/>
<path d="M97.546 50.0363C91.0303 39.0902 81.1861 38.81 71.806 37.0469C82.188 43.7254 74.4956 55.0787 69.1163 66.2787C63.737 77.4786 65.6601 97.1739 92.0994 94.7963" stroke="white" stroke-linecap="round" stroke-linejoin="round"/>
<path d="M89.3574 40.8598L100.405 34.8489L112.926 41.728" stroke="white" stroke-linecap="round" stroke-linejoin="round"/>
<path d="M89.5368 113.082C82.8231 109.94 75.431 108.497 68.0195 108.881C68.0195 108.881 72.8071 123.828 78.7782 128.176C84.7492 132.523 92.0113 132.67 94.9833 128.503C97.9554 124.335 95.5145 117.43 89.5368 113.082Z" stroke="white" stroke-linecap="round" stroke-linejoin="round"/>
<path d="M96.9814 96.8066V155.037" stroke="white" stroke-linecap="round" stroke-linejoin="round"/>
</svg>
