<svg width="159" height="159" viewBox="0 0 159 159" fill="none" xmlns="http://www.w3.org/2000/svg">
<path d="M79.5 159C123.407 159 159 123.407 159 79.5C159 35.5934 123.407 0 79.5 0C35.5934 0 0 35.5934 0 79.5C0 123.407 35.5934 159 79.5 159Z" fill="#6C1D45"/>
<path d="M133.099 54.0651C133.099 54.2298 133.069 54.4001 133.064 54.5591C132.769 65.5188 128.087 72.0491 118.695 74.843C116.094 75.7135 113.299 75.8992 110.599 75.3811C107.899 74.863 105.392 73.6598 103.335 71.8956C101.278 70.1313 99.7459 67.8699 98.8974 65.3446C98.0489 62.8192 97.9143 60.1213 98.5075 57.529C98.6719 56.2843 99.1117 55.0881 99.7971 54.0215C100.482 52.9548 101.397 52.0425 102.48 51.3464C103.563 50.6502 104.788 50.1864 106.072 49.9863C107.357 49.7862 108.671 49.8545 109.926 50.1866C111.794 50.8258 113.356 52.0998 114.319 53.7698C115.668 56.1378 114.025 57.8641 111.222 57.8868C109.926 57.8868 107.629 58.3751 107.529 58.926C107.207 60.5278 107.491 62.1882 108.33 63.6051C109.313 64.5927 110.534 65.3301 111.885 65.7514C113.235 66.1728 114.673 66.265 116.069 66.0197C117.465 65.7745 118.777 65.1995 119.887 64.3461C120.996 63.4927 121.87 62.3875 122.428 61.1292C123.805 58.9249 124.424 56.3572 124.197 53.7932C123.969 51.2293 122.907 48.8002 121.162 46.8533C119.355 44.6653 117.017 42.9399 114.355 41.8297C111.692 40.7195 108.787 40.2585 105.896 40.4875C103.005 40.7165 100.217 41.6284 97.7781 43.1427C95.3392 44.657 93.3245 46.7271 91.9119 49.1702C89.3448 52.9557 88.0874 57.4282 88.3202 61.9456C88.5529 66.4631 90.2639 70.7934 93.2075 74.3149C95.3864 76.9725 97.9186 79.3631 100.145 81.9753C102.708 84.9059 104.621 88.3126 105.764 91.9847C106.907 95.6568 107.257 99.5161 106.791 103.324C106.325 107.131 105.053 110.806 103.055 114.121C101.057 117.435 98.3749 120.319 95.1744 122.594C91.544 125.196 87.2122 126.732 82.6988 127.019C78.1854 127.307 73.6819 126.332 69.7285 124.212C67.1141 122.867 64.8277 120.998 63.0217 118.732C61.2157 116.466 59.9318 113.855 59.2557 111.073C58.5796 108.29 58.5269 105.401 59.1011 102.597C59.6753 99.7935 60.8631 97.1403 62.5853 94.8145C63.9931 92.9485 65.8532 91.4431 68.0032 90.4297C70.1532 89.4163 72.5277 88.9257 74.9195 89.0008C77.3113 89.0758 79.6478 89.7142 81.7249 90.8603C83.802 92.0063 85.5566 93.6251 86.8357 95.5755C87.8496 97.2061 88.3075 99.1024 88.1448 100.997C87.9821 102.892 87.2071 104.69 85.9288 106.138C84.3686 107.472 82.4056 108.288 80.3285 108.466C77.6549 108.63 76.7245 106.285 77.8139 103.923C78.4028 102.617 78.927 100.039 78.4028 99.7378C76.8432 98.7741 74.981 98.3719 73.1441 98.6021C71.204 99.295 69.6094 100.673 68.6833 102.457C67.7573 104.241 67.5688 106.297 68.1562 108.21C68.8541 110.457 70.1483 112.49 71.9105 114.106C73.6728 115.723 75.8423 116.868 78.2043 117.429C80.5663 117.989 83.0391 117.945 85.3782 117.302C87.7172 116.658 89.8415 115.436 91.541 113.758C93.6655 111.857 95.3248 109.523 96.3986 106.927C97.4725 104.33 97.9339 101.536 97.7496 98.7464C97.5653 95.9568 96.7398 93.2417 95.3329 90.7977C93.926 88.3537 91.973 86.2421 89.6153 84.6158C86.8748 82.4818 83.6647 80.98 80.2303 80.2251C76.7959 79.4703 73.228 79.4823 69.7992 80.2603C63.2805 82.2284 56.3812 82.7315 49.6297 81.7311C45.8124 80.9621 42.211 79.4112 39.0694 77.1832C35.9278 74.9552 33.3193 72.1023 31.4207 68.8176C29.5221 65.5329 28.3776 61.8931 28.0648 58.1448C27.7519 54.3964 28.2781 50.627 29.6075 47.0918C30.6419 44.3448 32.2332 41.8239 34.2886 39.6763C36.3441 37.5286 38.8225 35.7972 41.5793 34.583C44.336 33.3688 47.316 32.6961 50.3452 32.6043C53.3744 32.5125 56.3923 33.0033 59.2227 34.0481C61.9366 35.0859 64.332 36.7724 66.1836 38.9489C68.0351 41.1255 69.282 43.7205 69.8068 46.4898C70.3315 49.2591 70.117 52.1116 69.1833 54.779C68.2497 57.4463 66.6276 59.8407 64.4697 61.7368C63.3345 62.6981 62.004 63.4206 60.563 63.8584C59.122 64.2961 57.6023 64.4393 56.1006 64.2791C54.599 64.1188 53.1486 63.6584 51.8418 62.9274C50.535 62.1964 49.4005 61.2107 48.5108 60.0333C47.5417 58.8887 47.0124 57.4564 47.0124 55.9788C47.0124 54.5012 47.5417 53.0689 48.5108 51.9243C50.2363 50.2207 52.3209 50.2207 53.4045 52.106C54.5469 54.0821 55.4185 56.2684 58.3865 54.792C59.5453 54.0604 60.4034 52.9621 60.8129 51.6862C61.2225 50.4102 61.1578 49.0366 60.6302 47.8016C59.6437 45.639 57.9167 43.8689 55.7383 42.7875C53.5599 41.7062 51.0624 41.3794 48.6639 41.8618C46.5214 42.4666 44.5403 43.5118 42.8568 44.9255C41.1732 46.3392 39.8274 48.0879 38.9118 50.0512C37.9962 52.0144 37.5326 54.1457 37.553 56.2983C37.5734 58.4509 38.0772 60.5736 39.0297 62.5205C40.626 65.7515 43.1077 68.5005 46.2065 70.4702C49.3054 72.4399 52.9036 73.5555 56.6122 73.6964C60.3209 73.8373 63.9989 72.9981 67.2489 71.2696C70.4989 69.5411 73.1971 66.989 75.0521 63.889C77.279 60.2339 79.0089 56.3176 80.1989 52.2366C82.2159 45.7804 86.3716 40.1395 92.0297 36.1776C95.0295 34.0786 98.4493 32.6043 102.072 31.8483C105.694 31.0923 109.44 31.0711 113.072 31.7862C116.703 32.5013 120.14 33.9369 123.165 36.0019C126.19 38.0669 128.737 40.7161 130.643 43.7812C132.559 46.8805 133.42 50.481 133.105 54.0765" fill="white"/>
</svg>
